<?xml version="1.0" encoding="UTF-8"?>
<svg width="200" height="200" viewBox="0 0 200 200" fill="none" xmlns="http://www.w3.org/2000/svg">
  <!-- Background Circle -->
  <circle cx="100" cy="100" r="90" fill="#0d6efd" fill-opacity="0.1" />
  
  <!-- Sine Waves -->
  <path d="M30 120 C 45 80, 60 120, 75 80 C 90 40, 105 80, 120 120 C 135 160, 150 120, 165 80" 
        stroke="#0d6efd" stroke-width="6" stroke-linecap="round" fill="none" />
  
  <!-- Secondary Wave -->
  <path d="M30 100 C 50 70, 70 130, 90 100 C 110 70, 130 130, 150 100 C 170 70, 190 130, 210 100" 
        stroke="#0d6efd" stroke-width="4" stroke-linecap="round" fill="none" stroke-opacity="0.6" />
  
  <!-- Small decorative circles -->
  <circle cx="75" cy="80" r="5" fill="#0d6efd" />
  <circle cx="120" cy="120" r="5" fill="#0d6efd" />
  <circle cx="165" cy="80" r="5" fill="#0d6efd" />
  
  <!-- Letter C -->
  <path d="M90 155 C 75 155, 65 145, 65 130 C 65 115, 75 105, 90 105 L 95 105" 
        stroke="#0d6efd" stroke-width="10" stroke-linecap="round" fill="none" />
  
  <!-- Letter T -->
  <path d="M110 105 L 140 105 M 125 105 L 125 155" 
        stroke="#0d6efd" stroke-width="10" stroke-linecap="round" fill="none" />
</svg>